<?xml version="1.0" encoding="utf-8"?>
<!-- Generator: Adobe Illustrator 18.0.0, SVG Export Plug-In . SVG Version: 6.00 Build 0)  -->
<!DOCTYPE svg PUBLIC "-//W3C//DTD SVG 1.1//EN" "http://www.w3.org/Graphics/SVG/1.1/DTD/svg11.dtd">
<svg version="1.1" xmlns="http://www.w3.org/2000/svg" xmlns:xlink="http://www.w3.org/1999/xlink" x="0px" y="0px"
	 viewBox="0 0 480 480" enable-background="new 0 0 480 480" xml:space="preserve">
<g id="Calque_4">
	<path fill="#FFFFFF" d="M390,285L390,45L90,45L90,285L390,285z"/>
</g>
<g id="Calque_2">
	<path fill="#FF0000" d="M435,45L90,45L90,285L435,285L435,45z M327.452,202.5L327.452,127.5L262.5,90L197.548,127.5L197.548,202.5L262.5,240L327.452,202.5z M157.5,435A45,45,0,0,0,202.5,390L202.5,360L90,360A45,45,0,0,1,45,315L45,45A45,45,0,0,1,90,0L435,0A45,45,0,0,1,480,45L480,315A45,45,0,0,1,435,360L322.5,360L322.5,390A45,45,0,0,0,367.5,435L390,435L390,480L135,480L135,435L157.5,435z"/>
</g>
<g id="Calque_3">
	<path fill="#00FFFF" d="M390,45L45,45L45,285L390,285L390,45z M282.452,202.5L282.452,127.5L217.5,90L152.548,127.5L152.548,202.5L217.5,240L282.452,202.5z M112.5,435A45,45,0,0,0,157.5,390L157.5,360L45,360A45,45,0,0,1,0,315L0,45A45,45,0,0,1,45,0L390,0A45,45,0,0,1,435,45L435,315A45,45,0,0,1,390,360L277.5,360L277.5,390A45,45,0,0,0,322.5,435L345,435L345,480L90,480L90,435L112.5,435z"/>
</g>
<g id="Calque_1">
	<path d="M135,480L135,435L157.5,435A45,45,0,0,0,202.5,390L202.5,360L90,360A45,45,0,0,1,45,315L45,45A45,45,0,0,1,90,0L390,0A45,45,0,0,1,435,45L435,315A45,45,0,0,1,390,360L277.5,360L277.5,390A45,45,0,0,0,322.5,435L345,435L345,480L135,480z M390,285L390,45L90,45L90,285L390,285z M240,102.99L197.548,127.5L197.548,202.5L240,227.01L282.452,202.5L282.452,127.5L240,102.99z"/>
</g>
</svg>
